# xmcd CD database file generated by LOLA_Freedb v0.9beta0
# 
# Track frame offsets:
#      150
#      15035
#      30297
#      44025
#      60505
#      72680
#      87785
#      101250
#      115067
#      131630
#      146975
#      163015
#      177387
#      188545
#      205935
# 
# Disc length: 2916 seconds
# 
# Revision: 0 
# Processed by: cddbd v1.5.1PL2 Copyright (c) Steve Scherf et al.
# Submitted via: LOLA_Freedb v0.9beta0
# 
DISCID=c80b620f
DTITLE=Various Artist - Country Duets
DYEAR=1900
DGENRE=
TTITLE0=Waylon Jennings - There ain't no good chain gang
TTITLE1=Merle Haggard - Making believe
TTITLE2=Mickey Gilley - Candy man
TTITLE3=Tammy Wynette - Sometimes when we touch
TTITLE4=B.J. Thomas - Rock and Roll shoes
TTITLE5=Dolly Parton - A vision of mother
TTITLE6=Lacy J. Dalton - It's a dirty job
TTITLE7=Tammy Wynette - Golden ring
TTITLE8=David Allen Coe - Get a little dirt on your hands
TTITLE9=Rosanne Cash - No memories hangin' round
TTITLE10=Merle Haggard - All the soft places to fall
TTITLE11=Janie Fickie - On my knees
TTITLE12=Earl Skruggs - Ther ain't no country music on this Jukebox
TTITLE13=Conway Twitty - It's only make believe
TTITLE14=Moe Bandy - Where's the dress
EXTD=
EXTT0=with Johnny Cash 
EXTT1=with George Jones
EXTT2=with Charlie McClain
EXTT3=with Mark Gray
EXTT4=with Ray Charles
EXTT5=with Ricky Skaggs
EXTT6=with Bobby Bare
EXTT7=with George Jones
EXTT8=with Bill Anderson
EXTT9=with Bobby Bare
EXTT10=with Willie Nelson
EXTT11=with Charlie Rich
EXTT12=with Tom T. Hall
EXTT13=with Ronnie McDowell
EXTT14=with Joe Stampley
PLAYORDER=
